<svg xmlns="http://www.w3.org/2000/svg" xmlns:xlink="http://www.w3.org/1999/xlink" contentStyleType="text/css" height="1394px" preserveAspectRatio="none" style="width:1760px;height:1394px;background:#FFFFFF;" version="1.1" viewBox="0 0 1760 1394" width="1760px" zoomAndPan="magnify"><defs/><g><!--cluster server--><g id="cluster_server"><path d="M8.5,6 L54.8564,6 A3.75,3.75 0 0 1 57.3564,8.5 L64.3564,28.4883 L1722.5,28.4883 A2.5,2.5 0 0 1 1725,30.9883 L1725,1384.68 A2.5,2.5 0 0 1 1722.5,1387.18 L8.5,1387.18 A2.5,2.5 0 0 1 6,1384.68 L6,8.5 A2.5,2.5 0 0 1 8.5,6 " fill="none" style="stroke:#000000;stroke-width:1.5;"/><line style="stroke:#000000;stroke-width:1.5;" x1="6" x2="64.3564" y1="28.4883" y2="28.4883"/><text fill="#000000" font-family="sans-serif" font-size="14" font-weight="bold" lengthAdjust="spacing" textLength="45.3564" x="10" y="21.5352">server</text></g><!--cluster common--><g id="cluster_common"><path d="M1274.5,1123.2 L1337.1807,1123.2 A3.75,3.75 0 0 1 1339.6807,1125.7 L1346.6807,1145.6883 L1694.5,1145.6883 A2.5,2.5 0 0 1 1697,1148.1883 L1697,1360.68 A2.5,2.5 0 0 1 1694.5,1363.18 L1274.5,1363.18 A2.5,2.5 0 0 1 1272,1360.68 L1272,1125.7 A2.5,2.5 0 0 1 1274.5,1123.2 " fill="none" style="stroke:#000000;stroke-width:1.5;"/><line style="stroke:#000000;stroke-width:1.5;" x1="1272" x2="1346.6807" y1="1145.6883" y2="1145.6883"/><text fill="#000000" font-family="sans-serif" font-size="14" font-weight="bold" lengthAdjust="spacing" textLength="61.6807" x="1276" y="1138.7352">common</text></g><!--cluster auth--><g id="cluster_auth"><path d="M32.5,49 L65.793,49 A3.75,3.75 0 0 1 68.293,51.5 L75.293,71.4883 L1648.5,71.4883 A2.5,2.5 0 0 1 1651,73.9883 L1651,1050.7 A2.5,2.5 0 0 1 1648.5,1053.2 L32.5,1053.2 A2.5,2.5 0 0 1 30,1050.7 L30,51.5 A2.5,2.5 0 0 1 32.5,49 " fill="none" style="stroke:#000000;stroke-width:1.5;"/><line style="stroke:#000000;stroke-width:1.5;" x1="30" x2="75.293" y1="71.4883" y2="71.4883"/><text fill="#000000" font-family="sans-serif" font-size="14" font-weight="bold" lengthAdjust="spacing" textLength="32.293" x="34" y="64.5352">auth</text></g><!--class TimeService--><g id="elem_TimeService"><rect codeLine="4" fill="#F1F1F1" height="64.4883" id="TimeService" rx="2.5" ry="2.5" style="stroke:#181818;stroke-width:0.5;" width="195.6406" x="1288.18" y="1158.2"/><ellipse cx="1341.1995" cy="1174.2" fill="#B4A7E5" rx="11" ry="11" style="stroke:#181818;stroke-width:1.0;"/><path d="M1337.1273,1169.9651 L1337.1273,1167.8069 L1344.5067,1167.8069 L1344.5067,1169.9651 L1342.0413,1169.9651 L1342.0413,1178.0418 L1344.5067,1178.0418 L1344.5067,1180.2 L1337.1273,1180.2 L1337.1273,1178.0418 L1339.5926,1178.0418 L1339.5926,1169.9651 Z " fill="#000000"/><text fill="#000000" font-family="sans-serif" font-size="14" font-style="italic" lengthAdjust="spacing" textLength="81.1016" x="1361.6995" y="1179.491">TimeService</text><line style="stroke:#181818;stroke-width:0.5;" x1="1289.18" x2="1482.8206" y1="1190.2" y2="1190.2"/><line style="stroke:#181818;stroke-width:0.5;" x1="1289.18" x2="1482.8206" y1="1198.2" y2="1198.2"/><ellipse cx="1299.18" cy="1211.9441" fill="#84BE84" rx="3" ry="3" style="stroke:#038048;stroke-width:1.0;"/><text fill="#000000" font-family="sans-serif" font-size="14" lengthAdjust="spacing" textLength="169.6406" x="1308.18" y="1215.7352">currentTimeMillis(): Long</text></g><!--class TimeDefaultService--><g id="elem_TimeDefaultService"><rect codeLine="7" fill="#F1F1F1" height="64.4883" id="TimeDefaultService" rx="2.5" ry="2.5" style="stroke:#181818;stroke-width:0.5;" width="195.6406" x="1288.18" y="1282.69"/><ellipse cx="1318.2111" cy="1298.69" fill="#ADD1B2" rx="11" ry="11" style="stroke:#181818;stroke-width:1.0;"/><path d="M1321.1842,1304.3331 Q1320.6031,1304.6319 1319.964,1304.7813 Q1319.3248,1304.9307 1318.6193,1304.9307 Q1316.1124,1304.9307 1314.7926,1303.2789 Q1313.4728,1301.627 1313.4728,1298.5059 Q1313.4728,1295.3765 1314.7926,1293.7247 Q1316.1124,1292.0728 1318.6193,1292.0728 Q1319.3248,1292.0728 1319.9723,1292.2222 Q1320.6197,1292.3716 1321.1842,1292.6705 L1321.1842,1295.3931 Q1320.5533,1294.8121 1319.9598,1294.5423 Q1319.3663,1294.2725 1318.7355,1294.2725 Q1317.3907,1294.2725 1316.7059,1295.3392 Q1316.0211,1296.4058 1316.0211,1298.5059 Q1316.0211,1300.5977 1316.7059,1301.6644 Q1317.3907,1302.731 1318.7355,1302.731 Q1319.3663,1302.731 1319.9598,1302.4612 Q1320.5533,1302.1915 1321.1842,1301.6104 Z " fill="#000000"/><text fill="#000000" font-family="sans-serif" font-size="14" lengthAdjust="spacing" textLength="130.2383" x="1335.5513" y="1303.981">TimeDefaultService</text><line style="stroke:#181818;stroke-width:0.5;" x1="1289.18" x2="1482.8206" y1="1314.69" y2="1314.69"/><line style="stroke:#181818;stroke-width:0.5;" x1="1289.18" x2="1482.8206" y1="1322.69" y2="1322.69"/><ellipse cx="1299.18" cy="1336.4341" fill="#84BE84" rx="3" ry="3" style="stroke:#038048;stroke-width:1.0;"/><text fill="#000000" font-family="sans-serif" font-size="14" lengthAdjust="spacing" textLength="169.6406" x="1308.18" y="1340.2252">currentTimeMillis(): Long</text></g><!--class UuidFactory--><g id="elem_UuidFactory"><rect codeLine="12" fill="#F1F1F1" height="64.4883" id="UuidFactory" rx="2.5" ry="2.5" style="stroke:#181818;stroke-width:0.5;" width="128.498" x="1535.75" y="1158.2"/><ellipse cx="1557.9337" cy="1174.2" fill="#B4A7E5" rx="11" ry="11" style="stroke:#181818;stroke-width:1.0;"/><path d="M1553.8615,1169.9651 L1553.8615,1167.8069 L1561.2409,1167.8069 L1561.2409,1169.9651 L1558.7755,1169.9651 L1558.7755,1178.0418 L1561.2409,1178.0418 L1561.2409,1180.2 L1553.8615,1180.2 L1553.8615,1178.0418 L1556.3268,1178.0418 L1556.3268,1169.9651 Z " fill="#000000"/><text fill="#000000" font-family="sans-serif" font-size="14" font-style="italic" lengthAdjust="spacing" textLength="80.5342" x="1573.5301" y="1179.491">UuidFactory</text><line style="stroke:#181818;stroke-width:0.5;" x1="1536.75" x2="1663.248" y1="1190.2" y2="1190.2"/><line style="stroke:#181818;stroke-width:0.5;" x1="1536.75" x2="1663.248" y1="1198.2" y2="1198.2"/><ellipse cx="1546.75" cy="1211.9441" fill="#84BE84" rx="3" ry="3" style="stroke:#038048;stroke-width:1.0;"/><text fill="#000000" font-family="sans-serif" font-size="14" lengthAdjust="spacing" textLength="102.498" x="1555.75" y="1215.7352">invoke(): String</text></g><!--class UuidDefaultFactory--><g id="elem_UuidDefaultFactory"><rect codeLine="15" fill="#F1F1F1" height="64.4883" id="UuidDefaultFactory" rx="2.5" ry="2.5" style="stroke:#181818;stroke-width:0.5;" width="161.6709" x="1519.16" y="1282.69"/><ellipse cx="1534.16" cy="1298.69" fill="#ADD1B2" rx="11" ry="11" style="stroke:#181818;stroke-width:1.0;"/><path d="M1537.1331,1304.3331 Q1536.5521,1304.6319 1535.9129,1304.7813 Q1535.2738,1304.9307 1534.5682,1304.9307 Q1532.0614,1304.9307 1530.7415,1303.2789 Q1529.4217,1301.627 1529.4217,1298.5059 Q1529.4217,1295.3765 1530.7415,1293.7247 Q1532.0614,1292.0728 1534.5682,1292.0728 Q1535.2738,1292.0728 1535.9212,1292.2222 Q1536.5687,1292.3716 1537.1331,1292.6705 L1537.1331,1295.3931 Q1536.5023,1294.8121 1535.9088,1294.5423 Q1535.3153,1294.2725 1534.6844,1294.2725 Q1533.3397,1294.2725 1532.6549,1295.3392 Q1531.9701,1296.4058 1531.9701,1298.5059 Q1531.9701,1300.5977 1532.6549,1301.6644 Q1533.3397,1302.731 1534.6844,1302.731 Q1535.3153,1302.731 1535.9088,1302.4612 Q1536.5023,1302.1915 1537.1331,1301.6104 Z " fill="#000000"/><text fill="#000000" font-family="sans-serif" font-size="14" lengthAdjust="spacing" textLength="129.6709" x="1548.16" y="1303.981">UuidDefaultFactory</text><line style="stroke:#181818;stroke-width:0.5;" x1="1520.16" x2="1679.8309" y1="1314.69" y2="1314.69"/><line style="stroke:#181818;stroke-width:0.5;" x1="1520.16" x2="1679.8309" y1="1322.69" y2="1322.69"/><ellipse cx="1530.16" cy="1336.4341" fill="#84BE84" rx="3" ry="3" style="stroke:#038048;stroke-width:1.0;"/><text fill="#000000" font-family="sans-serif" font-size="14" lengthAdjust="spacing" textLength="102.498" x="1539.16" y="1340.2252">invoke(): String</text></g><!--class UserStore--><g id="elem_UserStore"><rect codeLine="22" fill="#F1F1F1" height="146.9297" id="UserStore" rx="2.5" ry="2.5" style="stroke:#181818;stroke-width:0.5;" width="531.1348" x="1100.43" y="464.88"/><ellipse cx="1329.1126" cy="480.88" fill="#B4A7E5" rx="11" ry="11" style="stroke:#181818;stroke-width:1.0;"/><path d="M1325.0404,476.6451 L1325.0404,474.4869 L1332.4197,474.4869 L1332.4197,476.6451 L1329.9544,476.6451 L1329.9544,484.7218 L1332.4197,484.7218 L1332.4197,486.88 L1325.0404,486.88 L1325.0404,484.7218 L1327.5057,484.7218 L1327.5057,476.6451 Z " fill="#000000"/><text fill="#000000" font-family="sans-serif" font-size="14" font-style="italic" lengthAdjust="spacing" textLength="65.2695" x="1349.6126" y="486.171">UserStore</text><line style="stroke:#181818;stroke-width:0.5;" x1="1101.43" x2="1630.5648" y1="496.88" y2="496.88"/><line style="stroke:#181818;stroke-width:0.5;" x1="1101.43" x2="1630.5648" y1="504.88" y2="504.88"/><ellipse cx="1111.43" cy="518.6241" fill="#84BE84" rx="3" ry="3" style="stroke:#038048;stroke-width:1.0;"/><text fill="#000000" font-family="sans-serif" font-size="14" lengthAdjust="spacing" textLength="505.1348" x="1120.43" y="522.4152">addUser(userId: String, username: String, hashedPassword: String): String?</text><ellipse cx="1111.43" cy="535.1124" fill="#84BE84" rx="3" ry="3" style="stroke:#038048;stroke-width:1.0;"/><text fill="#000000" font-family="sans-serif" font-size="14" lengthAdjust="spacing" textLength="304.8623" x="1120.43" y="538.9034">getUserByUsername(username: String): User?</text><ellipse cx="1111.43" cy="551.6007" fill="#84BE84" rx="3" ry="3" style="stroke:#038048;stroke-width:1.0;"/><text fill="#000000" font-family="sans-serif" font-size="14" lengthAdjust="spacing" textLength="491.4355" x="1120.43" y="555.3917">storeRefreshToken(userId: String, refreshToken: RefreshToken): Boolean</text><ellipse cx="1111.43" cy="568.089" fill="#84BE84" rx="3" ry="3" style="stroke:#038048;stroke-width:1.0;"/><text fill="#000000" font-family="sans-serif" font-size="14" lengthAdjust="spacing" textLength="319.5254" x="1120.43" y="571.88">getRefreshToken(token: String): RefreshToken?</text><ellipse cx="1111.43" cy="584.5773" fill="#84BE84" rx="3" ry="3" style="stroke:#038048;stroke-width:1.0;"/><text fill="#000000" font-family="sans-serif" font-size="14" lengthAdjust="spacing" textLength="293.5898" x="1120.43" y="588.3683">deleteRefreshToken(token: String): Boolean</text><ellipse cx="1111.43" cy="601.0655" fill="#84BE84" rx="3" ry="3" style="stroke:#038048;stroke-width:1.0;"/><text fill="#000000" font-family="sans-serif" font-size="14" lengthAdjust="spacing" textLength="234.3701" x="1120.43" y="604.8566">deleteUser(userId: String): Boolean</text></g><!--class PostgresUserStore--><g id="elem_PostgresUserStore"><rect codeLine="30" fill="#F1F1F1" height="146.9297" id="PostgresUserStore" rx="2.5" ry="2.5" style="stroke:#181818;stroke-width:0.5;" width="531.1348" x="1103.43" y="671.81"/><ellipse cx="1303.0599" cy="687.81" fill="#ADD1B2" rx="11" ry="11" style="stroke:#181818;stroke-width:1.0;"/><path d="M1306.033,693.4531 Q1305.452,693.7519 1304.8128,693.9013 Q1304.1737,694.0507 1303.4681,694.0507 Q1300.9613,694.0507 1299.6414,692.3989 Q1298.3216,690.747 1298.3216,687.6259 Q1298.3216,684.4965 1299.6414,682.8447 Q1300.9613,681.1928 1303.4681,681.1928 Q1304.1737,681.1928 1304.8211,681.3422 Q1305.4686,681.4916 1306.033,681.7905 L1306.033,684.5131 Q1305.4022,683.9321 1304.8087,683.6623 Q1304.2152,683.3925 1303.5843,683.3925 Q1302.2396,683.3925 1301.5548,684.4592 Q1300.8699,685.5258 1300.8699,687.6259 Q1300.8699,689.7177 1301.5548,690.7844 Q1302.2396,691.851 1303.5843,691.851 Q1304.2152,691.851 1304.8087,691.5812 Q1305.4022,691.3115 1306.033,690.7304 Z " fill="#000000"/><text fill="#000000" font-family="sans-serif" font-size="14" lengthAdjust="spacing" textLength="123.375" x="1323.5599" y="693.101">PostgresUserStore</text><line style="stroke:#181818;stroke-width:0.5;" x1="1104.43" x2="1633.5648" y1="703.81" y2="703.81"/><line style="stroke:#181818;stroke-width:0.5;" x1="1104.43" x2="1633.5648" y1="711.81" y2="711.81"/><ellipse cx="1114.43" cy="725.5541" fill="#84BE84" rx="3" ry="3" style="stroke:#038048;stroke-width:1.0;"/><text fill="#000000" font-family="sans-serif" font-size="14" lengthAdjust="spacing" textLength="505.1348" x="1123.43" y="729.3452">addUser(userId: String, username: String, hashedPassword: String): String?</text><ellipse cx="1114.43" cy="742.0424" fill="#84BE84" rx="3" ry="3" style="stroke:#038048;stroke-width:1.0;"/><text fill="#000000" font-family="sans-serif" font-size="14" lengthAdjust="spacing" textLength="304.8623" x="1123.43" y="745.8334">getUserByUsername(username: String): User?</text><ellipse cx="1114.43" cy="758.5307" fill="#84BE84" rx="3" ry="3" style="stroke:#038048;stroke-width:1.0;"/><text fill="#000000" font-family="sans-serif" font-size="14" lengthAdjust="spacing" textLength="491.4355" x="1123.43" y="762.3217">storeRefreshToken(userId: String, refreshToken: RefreshToken): Boolean</text><ellipse cx="1114.43" cy="775.019" fill="#84BE84" rx="3" ry="3" style="stroke:#038048;stroke-width:1.0;"/><text fill="#000000" font-family="sans-serif" font-size="14" lengthAdjust="spacing" textLength="319.5254" x="1123.43" y="778.81">getRefreshToken(token: String): RefreshToken?</text><ellipse cx="1114.43" cy="791.5073" fill="#84BE84" rx="3" ry="3" style="stroke:#038048;stroke-width:1.0;"/><text fill="#000000" font-family="sans-serif" font-size="14" lengthAdjust="spacing" textLength="293.5898" x="1123.43" y="795.2983">deleteRefreshToken(token: String): Boolean</text><ellipse cx="1114.43" cy="807.9955" fill="#84BE84" rx="3" ry="3" style="stroke:#038048;stroke-width:1.0;"/><text fill="#000000" font-family="sans-serif" font-size="14" lengthAdjust="spacing" textLength="234.3701" x="1123.43" y="811.7866">deleteUser(userId: String): Boolean</text></g><!--class PasswordHasherService--><g id="elem_PasswordHasherService"><rect codeLine="40" fill="#F1F1F1" height="80.9766" id="PasswordHasherService" rx="2.5" ry="2.5" style="stroke:#181818;stroke-width:0.5;" width="482.2236" x="233.89" y="497.86"/><ellipse cx="391.5643" cy="513.86" fill="#B4A7E5" rx="11" ry="11" style="stroke:#181818;stroke-width:1.0;"/><path d="M387.4921,509.6251 L387.4921,507.4669 L394.8714,507.4669 L394.8714,509.6251 L392.4061,509.6251 L392.4061,517.7018 L394.8714,517.7018 L394.8714,519.86 L387.4921,519.86 L387.4921,517.7018 L389.9574,517.7018 L389.9574,509.6251 Z " fill="#000000"/><text fill="#000000" font-family="sans-serif" font-size="14" font-style="italic" lengthAdjust="spacing" textLength="158.375" x="412.0643" y="519.151">PasswordHasherService</text><line style="stroke:#181818;stroke-width:0.5;" x1="234.89" x2="715.1136" y1="529.86" y2="529.86"/><line style="stroke:#181818;stroke-width:0.5;" x1="234.89" x2="715.1136" y1="537.86" y2="537.86"/><ellipse cx="244.89" cy="551.6041" fill="#84BE84" rx="3" ry="3" style="stroke:#038048;stroke-width:1.0;"/><text fill="#000000" font-family="sans-serif" font-size="14" lengthAdjust="spacing" textLength="267.4219" x="253.89" y="555.3952">hashPassword(password: String): String</text><ellipse cx="244.89" cy="568.0924" fill="#84BE84" rx="3" ry="3" style="stroke:#038048;stroke-width:1.0;"/><text fill="#000000" font-family="sans-serif" font-size="14" lengthAdjust="spacing" textLength="456.2236" x="253.89" y="571.8834">verifyPassword(password: String, hashedPassword: String): Boolean</text></g><!--class PasswordHasherDefaultService--><g id="elem_PasswordHasherDefaultService"><rect codeLine="44" fill="#F1F1F1" height="80.9766" id="PasswordHasherDefaultService" rx="2.5" ry="2.5" style="stroke:#181818;stroke-width:0.5;" width="482.2236" x="45.89" y="704.79"/><ellipse cx="178.996" cy="720.79" fill="#ADD1B2" rx="11" ry="11" style="stroke:#181818;stroke-width:1.0;"/><path d="M181.9691,726.4331 Q181.388,726.7319 180.7489,726.8813 Q180.1097,727.0307 179.4042,727.0307 Q176.8973,727.0307 175.5775,725.3789 Q174.2577,723.727 174.2577,720.6059 Q174.2577,717.4765 175.5775,715.8247 Q176.8973,714.1728 179.4042,714.1728 Q180.1097,714.1728 180.7572,714.3222 Q181.4046,714.4716 181.9691,714.7705 L181.9691,717.4931 Q181.3382,716.9121 180.7447,716.6423 Q180.1512,716.3725 179.5204,716.3725 Q178.1756,716.3725 177.4908,717.4392 Q176.806,718.5058 176.806,720.6059 Q176.806,722.6977 177.4908,723.7644 Q178.1756,724.831 179.5204,724.831 Q180.1512,724.831 180.7447,724.5612 Q181.3382,724.2915 181.9691,723.7104 Z " fill="#000000"/><text fill="#000000" font-family="sans-serif" font-size="14" lengthAdjust="spacing" textLength="207.5117" x="199.496" y="726.081">PasswordHasherDefaultService</text><line style="stroke:#181818;stroke-width:0.5;" x1="46.89" x2="527.1136" y1="736.79" y2="736.79"/><line style="stroke:#181818;stroke-width:0.5;" x1="46.89" x2="527.1136" y1="744.79" y2="744.79"/><ellipse cx="56.89" cy="758.5341" fill="#84BE84" rx="3" ry="3" style="stroke:#038048;stroke-width:1.0;"/><text fill="#000000" font-family="sans-serif" font-size="14" lengthAdjust="spacing" textLength="267.4219" x="65.89" y="762.3252">hashPassword(password: String): String</text><ellipse cx="56.89" cy="775.0224" fill="#84BE84" rx="3" ry="3" style="stroke:#038048;stroke-width:1.0;"/><text fill="#000000" font-family="sans-serif" font-size="14" lengthAdjust="spacing" textLength="456.2236" x="65.89" y="778.8134">verifyPassword(password: String, hashedPassword: String): Boolean</text></g><!--class JwtService--><g id="elem_JwtService"><rect codeLine="50" fill="#F1F1F1" height="97.4648" id="JwtService" rx="2.5" ry="2.5" style="stroke:#181818;stroke-width:0.5;" width="505.3906" x="563.3" y="696.54"/><ellipse cx="777.8903" cy="712.54" fill="#B4A7E5" rx="11" ry="11" style="stroke:#181818;stroke-width:1.0;"/><path d="M773.8181,708.3051 L773.8181,706.1469 L781.1975,706.1469 L781.1975,708.3051 L778.7321,708.3051 L778.7321,716.3818 L781.1975,716.3818 L781.1975,718.54 L773.8181,718.54 L773.8181,716.3818 L776.2834,716.3818 L776.2834,708.3051 Z " fill="#000000"/><text fill="#000000" font-family="sans-serif" font-size="14" font-style="italic" lengthAdjust="spacing" textLength="67.71" x="798.3903" y="717.831">JwtService</text><line style="stroke:#181818;stroke-width:0.5;" x1="564.3" x2="1067.6906" y1="728.54" y2="728.54"/><ellipse cx="574.3" cy="742.2841" fill="none" rx="3" ry="3" style="stroke:#038048;stroke-width:1.0;"/><text fill="#000000" font-family="sans-serif" font-size="14" lengthAdjust="spacing" textLength="131.0381" x="583.3" y="746.0752">verifier: JWTVerifier</text><line style="stroke:#181818;stroke-width:0.5;" x1="564.3" x2="1067.6906" y1="753.0283" y2="753.0283"/><ellipse cx="574.3" cy="766.7724" fill="#84BE84" rx="3" ry="3" style="stroke:#038048;stroke-width:1.0;"/><text fill="#000000" font-family="sans-serif" font-size="14" lengthAdjust="spacing" textLength="374.9307" x="583.3" y="770.5634">generateToken(userId: String, username: String): String</text><ellipse cx="574.3" cy="783.2607" fill="#84BE84" rx="3" ry="3" style="stroke:#038048;stroke-width:1.0;"/><text fill="#000000" font-family="sans-serif" font-size="14" lengthAdjust="spacing" textLength="479.3906" x="583.3" y="787.0517">generateRefreshToken(userId: String, username: String): RefreshToken</text></g><!--class JwtDefaultService--><g id="elem_JwtDefaultService"><rect codeLine="55" fill="#F1F1F1" height="97.4648" id="JwtDefaultService" rx="2.5" ry="2.5" style="stroke:#181818;stroke-width:0.5;" width="505.3906" x="1129.3" y="939.74"/><ellipse cx="1319.322" cy="955.74" fill="#ADD1B2" rx="11" ry="11" style="stroke:#181818;stroke-width:1.0;"/><path d="M1322.2951,961.3831 Q1321.7141,961.6819 1321.0749,961.8313 Q1320.4357,961.9807 1319.7302,961.9807 Q1317.2233,961.9807 1315.9035,960.3289 Q1314.5837,958.677 1314.5837,955.5559 Q1314.5837,952.4265 1315.9035,950.7747 Q1317.2233,949.1228 1319.7302,949.1228 Q1320.4357,949.1228 1321.0832,949.2722 Q1321.7307,949.4216 1322.2951,949.7205 L1322.2951,952.4431 Q1321.6643,951.8621 1321.0708,951.5923 Q1320.4772,951.3225 1319.8464,951.3225 Q1318.5017,951.3225 1317.8168,952.3892 Q1317.132,953.4558 1317.132,955.5559 Q1317.132,957.6477 1317.8168,958.7144 Q1318.5017,959.781 1319.8464,959.781 Q1320.4772,959.781 1321.0708,959.5112 Q1321.6643,959.2415 1322.2951,958.6604 Z " fill="#000000"/><text fill="#000000" font-family="sans-serif" font-size="14" lengthAdjust="spacing" textLength="116.8467" x="1339.822" y="961.031">JwtDefaultService</text><line style="stroke:#181818;stroke-width:0.5;" x1="1130.3" x2="1633.6906" y1="971.74" y2="971.74"/><ellipse cx="1140.3" cy="985.4841" fill="none" rx="3" ry="3" style="stroke:#038048;stroke-width:1.0;"/><text fill="#000000" font-family="sans-serif" font-size="14" lengthAdjust="spacing" textLength="131.0381" x="1149.3" y="989.2752">verifier: JWTVerifier</text><line style="stroke:#181818;stroke-width:0.5;" x1="1130.3" x2="1633.6906" y1="996.2283" y2="996.2283"/><ellipse cx="1140.3" cy="1009.9724" fill="#84BE84" rx="3" ry="3" style="stroke:#038048;stroke-width:1.0;"/><text fill="#000000" font-family="sans-serif" font-size="14" lengthAdjust="spacing" textLength="374.9307" x="1149.3" y="1013.7634">generateToken(userId: String, username: String): String</text><ellipse cx="1140.3" cy="1026.4607" fill="#84BE84" rx="3" ry="3" style="stroke:#038048;stroke-width:1.0;"/><text fill="#000000" font-family="sans-serif" font-size="14" lengthAdjust="spacing" textLength="479.3906" x="1149.3" y="1030.2517">generateRefreshToken(userId: String, username: String): RefreshToken</text></g><!--class AuthService--><g id="elem_AuthService"><rect codeLine="62" fill="#F1F1F1" height="130.4414" id="AuthService" rx="2.5" ry="2.5" style="stroke:#181818;stroke-width:0.5;" width="545.9551" x="1089.02" y="274.44"/><ellipse cx="1317.9453" cy="290.44" fill="#ADD1B2" rx="11" ry="11" style="stroke:#181818;stroke-width:1.0;"/><path d="M1320.9184,296.0831 Q1320.3374,296.3819 1319.6982,296.5313 Q1319.0591,296.6807 1318.3535,296.6807 Q1315.8467,296.6807 1314.5268,295.0289 Q1313.207,293.377 1313.207,290.2559 Q1313.207,287.1265 1314.5268,285.4747 Q1315.8467,283.8228 1318.3535,283.8228 Q1319.0591,283.8228 1319.7065,283.9722 Q1320.354,284.1216 1320.9184,284.4205 L1320.9184,287.1431 Q1320.2876,286.5621 1319.6941,286.2923 Q1319.1006,286.0225 1318.4697,286.0225 Q1317.125,286.0225 1316.4402,287.0892 Q1315.7554,288.1558 1315.7554,290.2559 Q1315.7554,292.3477 1316.4402,293.4144 Q1317.125,294.481 1318.4697,294.481 Q1319.1006,294.481 1319.6941,294.2112 Q1320.2876,293.9415 1320.9184,293.3604 Z " fill="#000000"/><text fill="#000000" font-family="sans-serif" font-size="14" lengthAdjust="spacing" textLength="79.6045" x="1338.4453" y="295.731">AuthService</text><line style="stroke:#181818;stroke-width:0.5;" x1="1090.02" x2="1633.9751" y1="306.44" y2="306.44"/><line style="stroke:#181818;stroke-width:0.5;" x1="1090.02" x2="1633.9751" y1="314.44" y2="314.44"/><ellipse cx="1100.02" cy="328.1841" fill="#84BE84" rx="3" ry="3" style="stroke:#038048;stroke-width:1.0;"/><text fill="#000000" font-family="sans-serif" font-size="14" lengthAdjust="spacing" textLength="390.4072" x="1109.02" y="331.9752">registerUser(request: RegisterRequest): RegisterResponse</text><ellipse cx="1100.02" cy="344.6724" fill="#84BE84" rx="3" ry="3" style="stroke:#038048;stroke-width:1.0;"/><text fill="#000000" font-family="sans-serif" font-size="14" lengthAdjust="spacing" textLength="336.7109" x="1109.02" y="348.4634">loginUser(request: LoginRequest): LoginResponse</text><ellipse cx="1100.02" cy="361.1607" fill="#84BE84" rx="3" ry="3" style="stroke:#038048;stroke-width:1.0;"/><text fill="#000000" font-family="sans-serif" font-size="14" lengthAdjust="spacing" textLength="519.9551" x="1109.02" y="364.9517">refreshAccessToken(request: RefreshTokenRequest): RefreshTokenResponse</text><ellipse cx="1100.02" cy="377.649" fill="#84BE84" rx="3" ry="3" style="stroke:#038048;stroke-width:1.0;"/><text fill="#000000" font-family="sans-serif" font-size="14" lengthAdjust="spacing" textLength="366.0781" x="1109.02" y="381.44">logoutUser(request: LogoutRequest): LogoutResponse</text><ellipse cx="1100.02" cy="394.1373" fill="#84BE84" rx="3" ry="3" style="stroke:#038048;stroke-width:1.0;"/><text fill="#000000" font-family="sans-serif" font-size="14" lengthAdjust="spacing" textLength="319.2109" x="1109.02" y="397.9283">deleteUser(userId: String): DeleteUserResponse</text></g><!--class AuthRoutes--><g id="elem_AuthRoutes"><rect codeLine="73" fill="#F1F1F1" height="130.4414" id="AuthRoutes" rx="2.5" ry="2.5" style="stroke:#181818;stroke-width:0.5;" width="284.7129" x="1219.64" y="84"/><ellipse cx="1318.4535" cy="100" fill="#ADD1B2" rx="11" ry="11" style="stroke:#181818;stroke-width:1.0;"/><path d="M1321.4266,105.6431 Q1320.8456,105.9419 1320.2064,106.0913 Q1319.5672,106.2407 1318.8617,106.2407 Q1316.3548,106.2407 1315.035,104.5889 Q1313.7152,102.937 1313.7152,99.8159 Q1313.7152,96.6865 1315.035,95.0347 Q1316.3548,93.3828 1318.8617,93.3828 Q1319.5672,93.3828 1320.2147,93.5322 Q1320.8622,93.6816 1321.4266,93.9805 L1321.4266,96.7031 Q1320.7958,96.1221 1320.2023,95.8523 Q1319.6088,95.5825 1318.9779,95.5825 Q1317.6332,95.5825 1316.9483,96.6492 Q1316.2635,97.7158 1316.2635,99.8159 Q1316.2635,101.9077 1316.9483,102.9744 Q1317.6332,104.041 1318.9779,104.041 Q1319.6088,104.041 1320.2023,103.7712 Q1320.7958,103.5015 1321.4266,102.9204 Z " fill="#000000"/><text fill="#000000" font-family="sans-serif" font-size="14" lengthAdjust="spacing" textLength="78.5859" x="1338.9535" y="105.291">AuthRoutes</text><line style="stroke:#181818;stroke-width:0.5;" x1="1220.64" x2="1503.3529" y1="116" y2="116"/><polygon fill="none" points="1230.64,124.7441,1234.64,128.7441,1230.64,132.7441,1226.64,128.7441" style="stroke:#B38D22;stroke-width:1.0;"/><text fill="#000000" font-family="sans-serif" font-size="14" lengthAdjust="spacing" textLength="136.6709" x="1239.64" y="133.5352">POST /auth/register</text><polygon fill="none" points="1230.64,141.2324,1234.64,145.2324,1230.64,149.2324,1226.64,145.2324" style="stroke:#B38D22;stroke-width:1.0;"/><text fill="#000000" font-family="sans-serif" font-size="14" lengthAdjust="spacing" textLength="118.5762" x="1239.64" y="150.0234">POST /auth/login</text><polygon fill="none" points="1230.64,157.7207,1234.64,161.7207,1230.64,165.7207,1226.64,161.7207" style="stroke:#B38D22;stroke-width:1.0;"/><text fill="#000000" font-family="sans-serif" font-size="14" lengthAdjust="spacing" textLength="132.4941" x="1239.64" y="166.5117">POST /auth/refresh</text><polygon fill="none" points="1230.64,174.209,1234.64,178.209,1230.64,182.209,1226.64,178.209" style="stroke:#B38D22;stroke-width:1.0;"/><text fill="#000000" font-family="sans-serif" font-size="14" lengthAdjust="spacing" textLength="128.3652" x="1239.64" y="183">POST /auth/logout</text><polygon fill="none" points="1230.64,190.6973,1234.64,194.6973,1230.64,198.6973,1226.64,194.6973" style="stroke:#B38D22;stroke-width:1.0;"/><text fill="#000000" font-family="sans-serif" font-size="14" lengthAdjust="spacing" textLength="258.7129" x="1239.64" y="199.4883">DELETE /auth/account [authenticated]</text><line style="stroke:#181818;stroke-width:0.5;" x1="1220.64" x2="1503.3529" y1="206.4414" y2="206.4414"/></g><!--reverse link TimeService to TimeDefaultService--><g id="link_TimeService_TimeDefaultService"><path codeLine="10" d="M1386,1228.99 C1386,1247.28 1386,1264.23 1386,1282.5 " fill="none" id="TimeService-backto-TimeDefaultService" style="stroke:#181818;stroke-width:1.0;stroke-dasharray:7.0,7.0;"/><polygon fill="#181818" points="1386,1222.99,1382,1231.99,1386,1227.99,1390,1231.99,1386,1222.99" style="stroke:#181818;stroke-width:1.0;"/></g><!--reverse link UuidFactory to UuidDefaultFactory--><g id="link_UuidFactory_UuidDefaultFactory"><path codeLine="18" d="M1600,1228.99 C1600,1247.28 1600,1264.23 1600,1282.5 " fill="none" id="UuidFactory-backto-UuidDefaultFactory" style="stroke:#181818;stroke-width:1.0;stroke-dasharray:7.0,7.0;"/><polygon fill="#181818" points="1600,1222.99,1596,1231.99,1600,1227.99,1604,1231.99,1600,1222.99" style="stroke:#181818;stroke-width:1.0;"/></g><!--reverse link UserStore to PostgresUserStore--><g id="link_UserStore_PostgresUserStore"><path codeLine="38" d="M1367.3323,630.1681 C1367.6123,649.3781 1367.65,652.12 1367.93,671.34 " fill="none" id="UserStore-backto-PostgresUserStore" style="stroke:#181818;stroke-width:1.0;stroke-dasharray:7.0,7.0;"/><polygon fill="none" points="1367.07,612.17,1361.333,630.2555,1373.3317,630.0806,1367.07,612.17" style="stroke:#181818;stroke-width:1.0;"/></g><!--reverse link PasswordHasherService to PasswordHasherDefaultService--><g id="link_PasswordHasherService_PasswordHasherDefaultService"><path codeLine="48" d="M434.694,583.2815 C401.514,619.4515 356.71,668.29 323.46,704.53 " fill="none" id="PasswordHasherService-backto-PasswordHasherDefaultService" style="stroke:#181818;stroke-width:1.0;stroke-dasharray:7.0,7.0;"/><polygon fill="#181818" points="438.75,578.86,429.7184,582.7882,435.37,582.5445,435.6137,588.1961,438.75,578.86" style="stroke:#181818;stroke-width:1.0;"/></g><!--reverse link JwtService to JwtDefaultService--><g id="link_JwtService_JwtDefaultService"><path codeLine="60" d="M934.6997,796.8522 C1033.4197,838.9222 1170.36,897.28 1269.02,939.32 " fill="none" id="JwtService-backto-JwtDefaultService" style="stroke:#181818;stroke-width:1.0;stroke-dasharray:7.0,7.0;"/><polygon fill="#181818" points="929.18,794.5,935.8914,801.7082,933.7797,796.4602,939.0277,794.3486,929.18,794.5" style="stroke:#181818;stroke-width:1.0;"/></g><!--link AuthService to UserStore--><g id="link_AuthService_UserStore"><path codeLine="69" d="M1363.32,405.33 C1363.7,424.26 1363.9963,439.0713 1364.3963,458.4613 " fill="none" id="AuthService-to-UserStore" style="stroke:#181818;stroke-width:1.0;"/><polygon fill="#181818" points="1364.52,464.46,1368.3335,455.3794,1364.4169,459.4611,1360.3352,455.5444,1364.52,464.46" style="stroke:#181818;stroke-width:1.0;"/></g><!--link AuthService to PasswordHasherService--><g id="link_AuthService_PasswordHasherService"><path codeLine="70" d="M1088.63,401.28 C947.63,432.54 785.4477,468.501 660.8977,496.121 " fill="none" id="AuthService-to-PasswordHasherService" style="stroke:#181818;stroke-width:1.0;"/><polygon fill="#181818" points="655.04,497.42,664.6925,499.3766,659.9214,496.3375,662.9606,491.5664,655.04,497.42" style="stroke:#181818;stroke-width:1.0;"/></g><!--link AuthService to JwtService--><g id="link_AuthService_JwtService"><path codeLine="71" d="M1188.47,405.32 C1152.18,422.25 1115.19,442.21 1083,464.88 C988.09,531.7 903.234,631.0798 855.774,691.5598 " fill="none" id="AuthService-to-JwtService" style="stroke:#181818;stroke-width:1.0;"/><polygon fill="#181818" points="852.07,696.28,860.7728,691.6691,855.1567,692.3465,854.4793,686.7304,852.07,696.28" style="stroke:#181818;stroke-width:1.0;"/></g><!--link AuthRoutes to AuthService--><g id="link_AuthRoutes_AuthService"><path codeLine="80" d="M1362,214.8 C1362,233.98 1362,248.98 1362,268.16 " fill="none" id="AuthRoutes-to-AuthService" style="stroke:#181818;stroke-width:1.0;"/><polygon fill="#181818" points="1362,274.16,1366,265.16,1362,269.16,1358,265.16,1362,274.16" style="stroke:#181818;stroke-width:1.0;"/></g><!--link JwtDefaultService to TimeService--><g id="link_JwtDefaultService_TimeService"><path codeLine="83" d="M1382.96,1037.62 C1383.71,1074.95 1384.5993,1119.6112 1385.2493,1151.9212 " fill="none" id="JwtDefaultService-to-TimeService" style="stroke:#181818;stroke-width:1.0;"/><polygon fill="#181818" points="1385.37,1157.92,1389.1882,1148.8414,1385.2694,1152.921,1381.1898,1149.0023,1385.37,1157.92" style="stroke:#181818;stroke-width:1.0;"/></g><!--link JwtDefaultService to UuidFactory--><g id="link_JwtDefaultService_UuidFactory"><path codeLine="84" d="M1434.49,1037.62 C1475.19,1074.95 1525.9886,1121.5539 1561.2086,1153.8639 " fill="none" id="JwtDefaultService-to-UuidFactory" style="stroke:#181818;stroke-width:1.0;"/><polygon fill="#181818" points="1565.63,1157.92,1561.702,1148.8883,1561.9455,1154.54,1556.2939,1154.7835,1565.63,1157.92" style="stroke:#181818;stroke-width:1.0;"/></g><!--link AuthService to TimeService--><g id="link_AuthService_TimeService"><path codeLine="85" d="M1582.84,405.21 C1608.49,420.99 1631.64,440.58 1649,464.88 C1721.42,566.22 1671,619.71 1671,744.27 C1671,744.27 1671,744.27 1671,989.47 C1671,1022.45 1673.83,1036.48 1652,1061.2 C1609.5,1109.34 1575.88,1087.41 1518,1115.2 C1491.22,1128.07 1467.5521,1141.033 1443.6721,1154.863 " fill="none" id="AuthService-to-TimeService" style="stroke:#181818;stroke-width:1.0;"/><polygon fill="#181818" points="1438.48,1157.87,1448.2728,1156.8209,1442.8068,1155.3642,1444.2635,1149.8981,1438.48,1157.87" style="stroke:#181818;stroke-width:1.0;"/></g><!--link AuthService to UuidFactory--><g id="link_AuthService_UuidFactory"><path codeLine="86" d="M1608.77,405.16 C1635.33,420.91 1659.41,440.51 1678,464.88 C1753.74,564.18 1708,619.38 1708,744.27 C1708,744.27 1708,744.27 1708,989.47 C1708,1055.56 1665.6706,1116.2295 1633.7106,1153.4195 " fill="none" id="AuthService-to-UuidFactory" style="stroke:#181818;stroke-width:1.0;"/><polygon fill="#181818" points="1629.8,1157.97,1638.6996,1153.7513,1633.0588,1154.1779,1632.6322,1148.5372,1629.8,1157.97" style="stroke:#181818;stroke-width:1.0;"/></g><!--SRC=[xLPDRnCn4Btlhx349HKqlKSLg5M2e0eYoWSz80wMTxAnkh63xMqLGVyxu_tqxjf6GXoen1wgU3pl-Sqys_M9iWUQ0T6W7a6H7md1xrG7cJmUfQY3zkF2WDfJ1cJBZx113CVVtRpzNhD2AH36PdpYUSxrv696bb9aRTfp-ulbLEkIR0vxMkJcBt2wqgwdKmzxuYbeL_3qFML6glDmSIuUvGFO5JT6yKWTbgDUwS-fN25M_fWqgG0zgsXX3bwZTkZi1b6Zbj8qjNEJ0lzyJ1j1RuWT2tg4BdAW-W3f2YjyaghDR6jur-VDm5ZUs_Ek9feC6H5fvmOuRKMkOQz07xRO935Iffp96N5JaV5MoXoe66dfCPeAsifm9mToKiZ1G1JjNRB2UJhh0Gptpqfga-5w_prx2PvrBbt_n7CwCiztopI6VB3sgC1bPxrh4YUda8Lz35xUV7yEeY8RuhURiYSvVat_AyhzRRQtQQmQds5tJw5QIzqSr8pStM-_r8FXLXQWg07_qV0SCLz_6fBeCVDmkVb1Sx6ykACll4h7FdH_Egut6JJa1l-F1bgX8ECQzqLvJoZuNe0sLa0LNLU12pUYJr9ewBFaCkEYJx6qeGvV3ttW-ZQzOGoqhdha2EawuOfnem51iZ0ZHHZhIIh7FdpiyfotSoDivv7RyilBjzsz6ipm7kz0DgPtcy3dzXeh0pqm-zNgysPBhkohwghnFPXGMXg1bmx4qAYWFprVB1VRHPr06PE5CEIh7U4Zc3Cy9-ctG2VhScpTJYFS9-Fup9TTSfxDiJJdUPfukptaSH961C_9Bm00]--></g></svg>